<mxfile host="app.diagrams.net" modified="2023-10-27T05:47:17.372Z" agent="Mozilla/5.0 (Macintosh; Intel Mac OS X 10_15_7) AppleWebKit/537.36 (KHTML, like Gecko) Chrome/118.0.0.0 Safari/537.36" etag="1HOeceux9ThTHZu_Pfl7" version="21.8.2" type="device">
  <diagram name="第 1 页" id="xl6O7zaUsdpRNQmLYMiI">
    <mxGraphModel dx="543" dy="601" grid="1" gridSize="10" guides="1" tooltips="1" connect="1" arrows="1" fold="1" page="1" pageScale="1" pageWidth="827" pageHeight="1169" math="0" shadow="0">
      <root>
        <mxCell id="0" />
        <mxCell id="1" parent="0" />
        <mxCell id="dCMJDnY3C5cWu5vaReE6-1" value="2" style="rounded=0;whiteSpace=wrap;html=1;" vertex="1" parent="1">
          <mxGeometry x="320" y="280" width="70" height="50" as="geometry" />
        </mxCell>
        <mxCell id="dCMJDnY3C5cWu5vaReE6-2" value="4" style="rounded=0;whiteSpace=wrap;html=1;" vertex="1" parent="1">
          <mxGeometry x="390" y="280" width="70" height="50" as="geometry" />
        </mxCell>
        <mxCell id="dCMJDnY3C5cWu5vaReE6-3" value="0" style="text;html=1;align=center;verticalAlign=middle;resizable=0;points=[];autosize=1;strokeColor=none;fillColor=none;" vertex="1" parent="1">
          <mxGeometry x="340" y="250" width="30" height="30" as="geometry" />
        </mxCell>
        <mxCell id="dCMJDnY3C5cWu5vaReE6-4" value="1" style="text;html=1;align=center;verticalAlign=middle;resizable=0;points=[];autosize=1;strokeColor=none;fillColor=none;" vertex="1" parent="1">
          <mxGeometry x="410" y="250" width="30" height="30" as="geometry" />
        </mxCell>
        <mxCell id="dCMJDnY3C5cWu5vaReE6-6" value="2" style="text;html=1;align=center;verticalAlign=middle;resizable=0;points=[];autosize=1;strokeColor=none;fillColor=none;" vertex="1" parent="1">
          <mxGeometry x="480" y="250" width="30" height="30" as="geometry" />
        </mxCell>
        <mxCell id="dCMJDnY3C5cWu5vaReE6-7" value="" style="endArrow=classic;html=1;rounded=0;" edge="1" parent="1">
          <mxGeometry width="50" height="50" relative="1" as="geometry">
            <mxPoint x="360" y="350" as="sourcePoint" />
            <mxPoint x="360" y="330" as="targetPoint" />
          </mxGeometry>
        </mxCell>
        <mxCell id="dCMJDnY3C5cWu5vaReE6-8" value="i" style="text;html=1;align=center;verticalAlign=middle;resizable=0;points=[];autosize=1;strokeColor=none;fillColor=none;" vertex="1" parent="1">
          <mxGeometry x="345" y="348" width="30" height="30" as="geometry" />
        </mxCell>
        <mxCell id="dCMJDnY3C5cWu5vaReE6-10" value="" style="endArrow=classic;html=1;rounded=0;" edge="1" parent="1">
          <mxGeometry width="50" height="50" relative="1" as="geometry">
            <mxPoint x="565" y="350" as="sourcePoint" />
            <mxPoint x="565" y="330" as="targetPoint" />
          </mxGeometry>
        </mxCell>
        <mxCell id="dCMJDnY3C5cWu5vaReE6-11" value="j" style="text;html=1;align=center;verticalAlign=middle;resizable=0;points=[];autosize=1;strokeColor=none;fillColor=none;" vertex="1" parent="1">
          <mxGeometry x="550" y="348" width="30" height="30" as="geometry" />
        </mxCell>
        <mxCell id="dCMJDnY3C5cWu5vaReE6-14" value="" style="endArrow=classic;html=1;rounded=0;" edge="1" parent="1">
          <mxGeometry width="50" height="50" relative="1" as="geometry">
            <mxPoint x="425" y="350" as="sourcePoint" />
            <mxPoint x="425" y="330" as="targetPoint" />
          </mxGeometry>
        </mxCell>
        <mxCell id="dCMJDnY3C5cWu5vaReE6-15" value="h" style="text;html=1;align=center;verticalAlign=middle;resizable=0;points=[];autosize=1;strokeColor=none;fillColor=none;" vertex="1" parent="1">
          <mxGeometry x="410" y="348" width="30" height="30" as="geometry" />
        </mxCell>
        <mxCell id="dCMJDnY3C5cWu5vaReE6-16" value="round 1" style="text;html=1;align=center;verticalAlign=middle;resizable=0;points=[];autosize=1;strokeColor=none;fillColor=none;" vertex="1" parent="1">
          <mxGeometry x="240" y="290" width="60" height="30" as="geometry" />
        </mxCell>
        <mxCell id="dCMJDnY3C5cWu5vaReE6-17" value="2" style="rounded=0;whiteSpace=wrap;html=1;" vertex="1" parent="1">
          <mxGeometry x="320" y="420" width="70" height="50" as="geometry" />
        </mxCell>
        <mxCell id="dCMJDnY3C5cWu5vaReE6-18" value="4" style="rounded=0;whiteSpace=wrap;html=1;" vertex="1" parent="1">
          <mxGeometry x="390" y="420" width="70" height="50" as="geometry" />
        </mxCell>
        <mxCell id="dCMJDnY3C5cWu5vaReE6-19" value="0" style="text;html=1;align=center;verticalAlign=middle;resizable=0;points=[];autosize=1;strokeColor=none;fillColor=none;" vertex="1" parent="1">
          <mxGeometry x="340" y="390" width="30" height="30" as="geometry" />
        </mxCell>
        <mxCell id="dCMJDnY3C5cWu5vaReE6-20" value="1" style="text;html=1;align=center;verticalAlign=middle;resizable=0;points=[];autosize=1;strokeColor=none;fillColor=none;" vertex="1" parent="1">
          <mxGeometry x="410" y="390" width="30" height="30" as="geometry" />
        </mxCell>
        <mxCell id="dCMJDnY3C5cWu5vaReE6-28" value="round 2" style="text;html=1;align=center;verticalAlign=middle;resizable=0;points=[];autosize=1;strokeColor=none;fillColor=none;" vertex="1" parent="1">
          <mxGeometry x="240" y="430" width="60" height="30" as="geometry" />
        </mxCell>
        <mxCell id="dCMJDnY3C5cWu5vaReE6-31" value="" style="rounded=0;whiteSpace=wrap;html=1;strokeColor=none;" vertex="1" parent="1">
          <mxGeometry x="530" y="280" width="70" height="50" as="geometry" />
        </mxCell>
        <mxCell id="dCMJDnY3C5cWu5vaReE6-33" value="5" style="rounded=0;whiteSpace=wrap;html=1;" vertex="1" parent="1">
          <mxGeometry x="460" y="280" width="70" height="50" as="geometry" />
        </mxCell>
        <mxCell id="dCMJDnY3C5cWu5vaReE6-34" value="3" style="text;html=1;align=center;verticalAlign=middle;resizable=0;points=[];autosize=1;strokeColor=none;fillColor=none;" vertex="1" parent="1">
          <mxGeometry x="550" y="250" width="30" height="30" as="geometry" />
        </mxCell>
        <mxCell id="dCMJDnY3C5cWu5vaReE6-35" value="2" style="text;html=1;align=center;verticalAlign=middle;resizable=0;points=[];autosize=1;strokeColor=none;fillColor=none;" vertex="1" parent="1">
          <mxGeometry x="480" y="390" width="30" height="30" as="geometry" />
        </mxCell>
        <mxCell id="dCMJDnY3C5cWu5vaReE6-36" value="" style="endArrow=classic;html=1;rounded=0;" edge="1" parent="1">
          <mxGeometry width="50" height="50" relative="1" as="geometry">
            <mxPoint x="565" y="490" as="sourcePoint" />
            <mxPoint x="565" y="470" as="targetPoint" />
          </mxGeometry>
        </mxCell>
        <mxCell id="dCMJDnY3C5cWu5vaReE6-37" value="j" style="text;html=1;align=center;verticalAlign=middle;resizable=0;points=[];autosize=1;strokeColor=none;fillColor=none;" vertex="1" parent="1">
          <mxGeometry x="550" y="488" width="30" height="30" as="geometry" />
        </mxCell>
        <mxCell id="dCMJDnY3C5cWu5vaReE6-38" value="" style="rounded=0;whiteSpace=wrap;html=1;strokeColor=none;" vertex="1" parent="1">
          <mxGeometry x="530" y="420" width="70" height="50" as="geometry" />
        </mxCell>
        <mxCell id="dCMJDnY3C5cWu5vaReE6-39" value="5" style="rounded=0;whiteSpace=wrap;html=1;" vertex="1" parent="1">
          <mxGeometry x="460" y="420" width="70" height="50" as="geometry" />
        </mxCell>
        <mxCell id="dCMJDnY3C5cWu5vaReE6-40" value="3" style="text;html=1;align=center;verticalAlign=middle;resizable=0;points=[];autosize=1;strokeColor=none;fillColor=none;" vertex="1" parent="1">
          <mxGeometry x="550" y="390" width="30" height="30" as="geometry" />
        </mxCell>
        <mxCell id="dCMJDnY3C5cWu5vaReE6-41" value="" style="endArrow=classic;html=1;rounded=0;" edge="1" parent="1">
          <mxGeometry width="50" height="50" relative="1" as="geometry">
            <mxPoint x="495" y="490" as="sourcePoint" />
            <mxPoint x="495" y="470" as="targetPoint" />
          </mxGeometry>
        </mxCell>
        <mxCell id="dCMJDnY3C5cWu5vaReE6-42" value="i,h" style="text;html=1;align=center;verticalAlign=middle;resizable=0;points=[];autosize=1;strokeColor=none;fillColor=none;" vertex="1" parent="1">
          <mxGeometry x="475" y="488" width="40" height="30" as="geometry" />
        </mxCell>
        <mxCell id="dCMJDnY3C5cWu5vaReE6-52" value="2" style="rounded=0;whiteSpace=wrap;html=1;" vertex="1" parent="1">
          <mxGeometry x="320" y="551" width="70" height="50" as="geometry" />
        </mxCell>
        <mxCell id="dCMJDnY3C5cWu5vaReE6-53" value="4" style="rounded=0;whiteSpace=wrap;html=1;" vertex="1" parent="1">
          <mxGeometry x="390" y="551" width="70" height="50" as="geometry" />
        </mxCell>
        <mxCell id="dCMJDnY3C5cWu5vaReE6-54" value="0" style="text;html=1;align=center;verticalAlign=middle;resizable=0;points=[];autosize=1;strokeColor=none;fillColor=none;" vertex="1" parent="1">
          <mxGeometry x="340" y="521" width="30" height="30" as="geometry" />
        </mxCell>
        <mxCell id="dCMJDnY3C5cWu5vaReE6-55" value="1" style="text;html=1;align=center;verticalAlign=middle;resizable=0;points=[];autosize=1;strokeColor=none;fillColor=none;" vertex="1" parent="1">
          <mxGeometry x="410" y="521" width="30" height="30" as="geometry" />
        </mxCell>
        <mxCell id="dCMJDnY3C5cWu5vaReE6-56" value="round 3" style="text;html=1;align=center;verticalAlign=middle;resizable=0;points=[];autosize=1;strokeColor=none;fillColor=none;" vertex="1" parent="1">
          <mxGeometry x="240" y="561" width="60" height="30" as="geometry" />
        </mxCell>
        <mxCell id="dCMJDnY3C5cWu5vaReE6-57" value="2" style="text;html=1;align=center;verticalAlign=middle;resizable=0;points=[];autosize=1;strokeColor=none;fillColor=none;" vertex="1" parent="1">
          <mxGeometry x="480" y="521" width="30" height="30" as="geometry" />
        </mxCell>
        <mxCell id="dCMJDnY3C5cWu5vaReE6-58" value="" style="endArrow=classic;html=1;rounded=0;" edge="1" parent="1">
          <mxGeometry width="50" height="50" relative="1" as="geometry">
            <mxPoint x="565" y="621" as="sourcePoint" />
            <mxPoint x="565" y="601" as="targetPoint" />
          </mxGeometry>
        </mxCell>
        <mxCell id="dCMJDnY3C5cWu5vaReE6-59" value="i,j" style="text;html=1;align=center;verticalAlign=middle;resizable=0;points=[];autosize=1;strokeColor=none;fillColor=none;" vertex="1" parent="1">
          <mxGeometry x="550" y="619" width="30" height="30" as="geometry" />
        </mxCell>
        <mxCell id="dCMJDnY3C5cWu5vaReE6-60" value="" style="rounded=0;whiteSpace=wrap;html=1;strokeColor=none;" vertex="1" parent="1">
          <mxGeometry x="530" y="551" width="70" height="50" as="geometry" />
        </mxCell>
        <mxCell id="dCMJDnY3C5cWu5vaReE6-61" value="5" style="rounded=0;whiteSpace=wrap;html=1;" vertex="1" parent="1">
          <mxGeometry x="460" y="551" width="70" height="50" as="geometry" />
        </mxCell>
        <mxCell id="dCMJDnY3C5cWu5vaReE6-62" value="3" style="text;html=1;align=center;verticalAlign=middle;resizable=0;points=[];autosize=1;strokeColor=none;fillColor=none;" vertex="1" parent="1">
          <mxGeometry x="550" y="521" width="30" height="30" as="geometry" />
        </mxCell>
        <mxCell id="dCMJDnY3C5cWu5vaReE6-65" value="f(h)!=2" style="text;html=1;align=center;verticalAlign=middle;resizable=0;points=[];autosize=1;strokeColor=none;fillColor=none;" vertex="1" parent="1">
          <mxGeometry x="630" y="290" width="60" height="30" as="geometry" />
        </mxCell>
        <mxCell id="dCMJDnY3C5cWu5vaReE6-66" value="f(h)!=2" style="text;html=1;align=center;verticalAlign=middle;resizable=0;points=[];autosize=1;strokeColor=none;fillColor=none;" vertex="1" parent="1">
          <mxGeometry x="630" y="430" width="60" height="30" as="geometry" />
        </mxCell>
      </root>
    </mxGraphModel>
  </diagram>
</mxfile>
